<?xml version="1.0" encoding="utf-8"?>
<!-- Generator: Adobe Illustrator 27.2.0, SVG Export Plug-In . SVG Version: 6.00 Build 0)  -->
<svg version="1.1" id="Layer_1" xmlns="http://www.w3.org/2000/svg" xmlns:xlink="http://www.w3.org/1999/xlink" x="0px" y="0px"
	 viewBox="0 0 512 512" style="enable-background:new 0 0 512 512;" xml:space="preserve">
<style type="text/css">
	.st0{fill:#212121;}
</style>
<g>
	<path class="st0" d="M384.83,178.08c2.89,2.9,5.71,5.91,8.44,9.04c-19.33-4.93-40.76-0.39-56.22,13.62
		c-58.64-46.22-143.9-42.28-197.99,11.82c-11.34,11.34-20.54,24.07-27.63,38.09c-6.08,12.01-20.74,16.83-32.76,10.75
		c-12.02-6.08-16.83-20.75-10.75-32.76c9.41-18.6,21.66-35.55,36.66-50.56C181.97,100.69,307.44,100.69,384.83,178.08z
		 M242.72,380.31l29.69-59.42l-2.72-3.03c-14.29-14.29-37.46-14.29-51.76,0c-14.29,14.29-14.29,37.46,0,51.76
		C224.8,376.48,233.72,380.04,242.72,380.31z M293.26,279.16l22.07-44.18c-49.56-33.04-117.14-27.69-160.87,16.04
		c-11.22,11.22-20.14,24.61-26.58,39.32c-5.4,12.34,0.23,26.71,12.56,32.11c12.34,5.4,26.71-0.23,32.11-12.56
		c4.07-9.3,9.6-17.6,16.39-24.39C217.44,257,262.33,254.88,293.26,279.16z M449.08,119.33c12.39,12.39,24.06,26.51,34.23,41.24
		c7.65,11.08,4.86,26.27-6.22,33.92c-11.08,7.65-26.27,4.86-33.91-6.22c-8.53-12.35-18.32-24.21-28.57-34.46
		c-94.41-94.41-247.48-94.41-341.89,0c-9.73,9.73-19.43,21.59-28.29,34.37c-7.67,11.06-22.87,13.81-33.93,6.13
		c-11.06-7.68-13.81-22.87-6.14-33.93c10.44-15.04,21.96-29.13,33.88-41.05C151.68,5.87,335.63,5.87,449.08,119.33z M345.16,229.81
		l-97.45,195.01c-12.16,24.33,5.54,52.95,32.74,52.95h194.9c27.2,0,44.9-28.62,32.74-52.95l-97.45-195.01
		C397.16,202.83,358.65,202.83,345.16,229.81z M390.1,294.8v73.19c0,6.74-5.46,12.2-12.2,12.2c-6.74,0-12.2-5.46-12.2-12.2V294.8
		c0-6.74,5.46-12.19,12.2-12.19C384.64,282.6,390.1,288.06,390.1,294.8z M377.9,428.97c-6.74,0-12.2-5.46-12.2-12.2
		c0-6.74,5.46-12.2,12.2-12.2c6.74,0,12.2,5.46,12.2,12.2C390.1,423.51,384.64,428.97,377.9,428.97z"/>
</g>
</svg>
